<?xml version="1.0" encoding="utf-8"?>
<!-- Generator: Adobe Illustrator 17.1.0, SVG Export Plug-In . SVG Version: 6.00 Build 0)  -->
<!DOCTYPE svg PUBLIC "-//W3C//DTD SVG 1.1//EN" "http://www.w3.org/Graphics/SVG/1.1/DTD/svg11.dtd">
<svg version="1.1" id="Layer_1" xmlns="http://www.w3.org/2000/svg" xmlns:xlink="http://www.w3.org/1999/xlink" x="0px" y="0px"
	 viewBox="0 0 110.7 99" enable-background="new 0 0 110.7 99" xml:space="preserve">
<g opacity="0.13">
	<path fill="#1A1A1A" d="M55.4,72.6c22.6,0,41.8,9.9,48.5,23.7c1.7-3.4,2.6-7.1,2.6-10.8c0-19.1-22.9-74.8-51.1-74.8
		c-28.2,0-51.1,55.7-51.1,74.8c0,3.8,0.9,7.4,2.6,10.8C13.6,82.6,32.8,72.6,55.4,72.6z"/>
</g>
<g>
	<path fill="#C69C6D" d="M55.4,66.6c22.6,0,41.8,9.9,48.5,23.7c1.7-3.4,2.6-7.1,2.6-10.8c0-19.1-22.9-74.8-51.1-74.8
		C27.2,4.7,4.3,60.4,4.3,79.5c0,3.8,0.9,7.4,2.6,10.8C13.6,76.6,32.8,66.6,55.4,66.6z"/>
</g>
</svg>
