<?xml version="1.0" encoding="utf-8"?>
<!-- Generator: Adobe Illustrator 17.1.0, SVG Export Plug-In . SVG Version: 6.00 Build 0)  -->
<!DOCTYPE svg PUBLIC "-//W3C//DTD SVG 1.1//EN" "http://www.w3.org/Graphics/SVG/1.1/DTD/svg11.dtd">
<svg version="1.1" id="Layer_1" xmlns="http://www.w3.org/2000/svg" xmlns:xlink="http://www.w3.org/1999/xlink" x="0px" y="0px"
	 viewBox="0 0 110.7 99" enable-background="new 0 0 110.7 99" xml:space="preserve">
<g opacity="0.13">
	<path fill="#1A1A1A" d="M55.1,27C32.5,27,13.3,17.1,6.6,3.3C4.9,6.7,4,10.4,4,14.2C4,33.3,26.9,89,55.1,89
		c28.2,0,51.1-55.7,51.1-74.8c0-3.8-0.9-7.4-2.6-10.8C96.9,17.1,77.7,27,55.1,27z"/>
</g>
<g>
	<path fill="#C69C6D" d="M55.1,33C32.5,33,13.3,23.1,6.6,9.3C4.9,12.7,4,16.4,4,20.2C4,39.3,26.9,95,55.1,95
		c28.2,0,51.1-55.7,51.1-74.8c0-3.8-0.9-7.4-2.6-10.8C96.9,23.1,77.7,33,55.1,33z"/>
</g>
</svg>
