<?xml version="1.0" encoding="utf-8"?>
<!-- Generator: Adobe Illustrator 17.1.0, SVG Export Plug-In . SVG Version: 6.00 Build 0)  -->
<!DOCTYPE svg PUBLIC "-//W3C//DTD SVG 1.1//EN" "http://www.w3.org/Graphics/SVG/1.1/DTD/svg11.dtd">
<svg version="1.1" id="Layer_1" xmlns="http://www.w3.org/2000/svg" xmlns:xlink="http://www.w3.org/1999/xlink" x="0px" y="0px"
	 viewBox="0 0 5637.5 2547.4" enable-background="new 0 0 5637.5 2547.4" xml:space="preserve">
<g>
	<path d="M0,1024.2c2.7-27.6,5.1-55.3,8.2-82.8C27.9,769,85.5,610.2,183.4,467c106.6-155.9,240.7-282,411-366.7
		C700.3,47.7,812.4,16.4,930.2,5.4c177.4-16.5,349.8,3.6,514.6,73.4c214.9,91,376,242.2,492.2,443.1c9.7,16.7,18.6,33.9,27.8,50.9
		c0.9,1.6,1.3,3.5,2.7,7.2c-5.2,0.2-9.6,0.6-14,0.6c-70.4,0-140.9-0.2-211.3,0.3c-10.3,0.1-16.1-3.6-21.9-11.7
		c-70.9-98.7-153.5-185.6-257-250.9c-96.2-60.7-201.4-95.6-314.1-108.8c-124.5-14.7-246.9-6.8-366.4,33.4
		C661.1,283.8,558,353.6,468.8,444.8C354.5,561.7,274.5,698.1,236.8,858c-22.3,94.5-28.1,190.2-22,287
		c7.6,121.9,34.1,239.2,88.8,348.6c94.7,189.2,234.2,333.8,430.4,418.6c109.8,47.4,225.6,63.6,344.7,57.3
		c24.5-1.3,48.9-4.7,73.4-5.9c9.7-0.5,11.8-5.4,13.2-12.8c16.6-85.9,49.1-165.6,97.9-237.8c98.3-145.6,226.3-254.8,396.5-306.6
		c127.4-38.8,255.6-38.7,379.5,15.5c117.8,51.6,191.4,143.9,231.5,264.5c0.6,1.7,0.4,3.6,0.7,6.6c-40.7,0-80.8,0.3-120.9-0.5
		c-4.2-0.1-9.6-6.3-12.2-11c-29.4-52.6-65.6-99.3-115.9-133.7c-48.7-33.3-103.2-50.1-161.4-55.8c-179.7-17.6-320.9,57.6-440,184.3
		c-68.6,73-115.1,158.4-138.7,258.9c6.9-1.9,12.5-3.2,18-4.9c152.3-50,274.7-142.2,374.4-266.2c8.6-10.7,18.3-20.8,24.8-32.7
		c9.5-17.3,22.7-20.9,41.5-20.6c69.4,1.2,138.9,0.5,211.4,0.5c-149.6,277.2-369,461.6-678,534.2c8.1,46.7,24.6,89.9,49.5,129.8
		c73.9,118.6,182.9,169.9,320.3,165.5c147-4.6,266.9-68,366.6-172.6c15.1-15.8,29.7-22.7,51.2-21.4c30.9,1.8,62,0.5,96.9,0.5
		c-13.5,17.4-24.6,32.4-36.5,46.7c-98.4,117.8-218.9,201.7-370,237c-28.8,6.7-58.6,9.2-88,13.7c-4.6,0.7-9.2,1.8-13.7,2.7
		c-23.6,0-47.3,0-70.9,0c-4.6-0.9-9.1-2.3-13.7-2.6c-53.6-3.7-105.8-14.2-154.8-36.4c-143.8-65.2-224.3-179.4-253.3-332.2
		c-2-10.5-5-12.8-15.1-12.1c-79.3,5.8-158.5,4.7-237.6-4.9c-128.8-15.6-252-50.8-363.6-117.1C217,1849.1,39.9,1562.2,5.5,1186.7
		c-1.9-21.1-3.7-42.1-5.5-63.2C0,1090.4,0,1057.3,0,1024.2z"/>
	<path d="M4774.6,592c0,73.7,0,147.3,0,222.4c-9.6,4.7-10.1-3.5-11.8-10.9c-5.7-25.2-10.2-50.9-18-75.5c-9.2-29.1-24.4-55.7-47.6-76
		c-11-9.6-24.7-17.6-38.6-22.2c-24.7-8.1-48.1,1.7-63.3,22.8c-30.8,42.8-27.4,102.7,11.7,146.2c20.1,22.3,45,40.2,67,60.8
		c27.8,26.2,56.8,51.4,81.6,80.2c31.6,36.6,43.4,82,46.3,129.7c3.2,53.7-2.8,106.2-31.5,152.8c-12.6,20.5-28.7,40.6-47.6,55
		c-35,26.7-75,28.5-114.9,9.1c-11.8-5.8-22.8-13.4-34.1-20.2c-22.7-13.7-35.6-9.8-47.7,13.9c-3.3,6.5-8.4,12.1-12.6,18
		c-1.5-7.7-4.4-15.4-4.4-23.1c-0.3-70.9-0.2-141.8-0.2-212.7c0-3.3-0.6-6.8,0.2-9.9c0.8-3.1,3-5.9,4.6-8.8c2.4,2.7,6.4,5.2,7.1,8.3
		c5.2,23.9,8.8,48.2,14.9,71.9c9.4,36.9,24,71.9,50,100.4c11.8,13,26.2,25.1,41.7,33c31.5,16.1,64.3,5.6,84.4-23.6
		c30.9-45,28.3-111.9-9.5-157.2c-18.6-22.3-42.3-40.2-63.7-60.1c-24.5-22.8-50.9-44-73-68.9c-36-40.5-52.8-89.7-55.6-143.7
		c-2.8-54.4,4.8-106.5,34.3-153.6c18.4-29.4,42-52,78-58.1c27-4.6,51.5,1.6,74.1,16.3c11.5,7.5,22.1,16.3,33.7,23.4
		c15.1,9.3,24.8,5,29.4-12.2c1.8-6.8,2.1-14,4.1-20.8c1-3.4,4.1-6.3,6.3-9.4C4771.2,590.3,4772.9,591.2,4774.6,592z"/>
	<path d="M3985,1134.8c0,15.1,0.3,30.1-0.2,45.2c-0.1,4-1.5,8.5-3.8,11.7c-11.6,16.6-22.9,33.6-35.8,49.1
		c-65.1,78.3-174.5,69.5-239.3,16.4c-47.6-39.1-73.9-91.1-90.3-148.9c-36.2-127.8-28.4-252.9,26.3-374.4
		c19.5-43.2,46.8-80.9,85.4-109.3c54.8-40.3,112.4-45.1,172.6-13.1c13.7,7.3,26.8,15.9,40.5,23.2c15.7,8.3,25.8,4.8,32.8-11.8
		c3.2-7.7,3.7-16.5,6.6-24.4c1.3-3.7,5.4-6.4,8.3-9.5c1.1,0.8,2.2,1.7,3.3,2.5c0.2,3.7,0.7,7.4,0.7,11.1c0,69.5,0.1,138.9-0.2,208.4
		c0,4.6-3.6,9.1-5.5,13.6c-2.5-4.2-6.4-8.2-7.3-12.7c-10.1-50.4-23.5-99.2-58.4-139.2c-44.5-50.9-106.8-50.8-149.9,1.3
		c-11,13.3-21.9,28-28,43.9c-10.8,28-20.9,56.9-26,86.3c-19.3,110.1-16.1,220.1,10.7,328.7c5.9,23.9,16.1,47.7,29,68.6
		c34.7,56.4,105,68,155,24.5c22-19.1,38.3-45,56.6-68.3c5.7-7.3,9.6-16,14.3-24C3983.2,1134.2,3984.1,1134.5,3985,1134.8z"/>
	<path d="M1067.1,592.1c0.2,3.7,0.7,7.4,0.7,11.1c0.1,69.5,0.1,139-0.1,208.5c0,4.3-3.1,8.6-4.8,12.9c-2.7-3.9-7.1-7.5-7.9-11.9
		c-10.1-50.4-23.4-99.3-58.1-139.4c-44.8-51.7-107.7-51.6-150.9,1.4c-11.5,14.1-22.4,29.8-28.9,46.6c-10.4,26.6-19.6,54.3-24.5,82.4
		c-19.5,110.7-16.2,221.1,10.8,330.2c5.9,23.8,16.3,47.6,29.3,68.5c34.8,55.7,104.4,67,154.2,24c22.1-19.1,38.3-45,56.7-68.2
		c5.8-7.3,9.7-16.1,15.9-23.9c-0.7,23.9,8.4,49-10.6,70.4c-17.2,19.4-31.8,41.7-51.3,58.2c-59,50.1-150.9,46.6-215.6-5.7
		c-45.1-36.5-71.1-85.2-87.5-139.4c-40.2-132.8-32.6-262.8,25.9-389c18.9-40.8,45.4-76.3,81.8-103.4c56-41.7,114.9-46.1,176.3-12.4
		c12.8,7,25.1,15,38.1,21.8c15.3,8.1,25.2,4.9,32.1-10.8c3.5-8.1,4.2-17.3,7.1-25.7c1.2-3.5,4.7-6.3,7.2-9.3
		C1064.2,590,1065.7,591,1067.1,592.1z"/>
	<path d="M1330.4,1053.3c-35.8,0-69.7,0-104.4,0c-0.3,3.3-0.8,6-0.8,8.7c0,53.9,0,107.7,0.2,161.6c0,7.5,0.8,15.1,2.5,22.4
		c3.4,15.1,12.8,22,30.4,24.8c3.8,0.6,7.1,4.3,10.6,6.6c-0.7,1.4-1.4,2.8-2.1,4.1c-50.8,0-101.7,0-157.9,0c5.2-5.2,7.7-10,10.9-10.6
		c24.1-4.4,30.5-10.3,33.6-34.4c1-7.9,1-16,1-24.1c0.1-112.5,0.1-224.9,0-337.4c0-9.9-0.4-19.9-2-29.6
		c-2.9-18.1-11.9-26.4-30.2-27.8c-7.5-0.6-12.1-1.7-8.5-11.3c50.6,0,101.5,0,152.3,0c0.9,1,1.8,2,2.7,2.9c-2.6,2.7-5.3,7.8-7.8,7.7
		c-25.7-0.5-34.9,17.1-35.2,41.9c-0.6,46.8-0.3,93.6-0.4,140.4c0,7,0,14,0,21.9c35.3,0,69.5,0,105.2,0c0-16.4,0-32.3,0-48.3
		c0-36.4,0.1-72.8-0.2-109.2c-0.3-32.7-5.1-38.4-36.2-46.6c-2.2-0.6-3.7-4.1-5.5-6.2c2.7-1.8,5.3-5.1,8-5.1
		c26.5-0.4,52.9-0.3,79.4-0.3c21.7,0,43.4,0,65.6,0c2.9,7.5,2.9,11.2-6.6,12.1c-21.5,1.9-28.7,9-31.9,30.6
		c-1.4,9.3-1.8,18.8-1.8,28.2c-0.1,112-0.1,224,0,336c0,7.6,0,15.2,0.8,22.7c2.6,24.1,10,31.3,34,35.8c3.3,0.6,5.9,4.7,8.9,7.2
		c-0.8,1.2-1.6,2.4-2.3,3.5c-50.8,0-101.7,0-157.9,0c5.2-5.5,7.4-10,10.5-10.7c27.2-5.9,34.5-13.7,34.9-42.1
		c0.6-46.8,0.3-93.6,0.3-140.4C1330.4,1077.1,1330.4,1065.9,1330.4,1053.3z"/>
	<path d="M1457.1,807.8c64.6,0,123.6-1.3,182.5,0.4c47.1,1.4,72.6,31.5,85.3,74.1c11.7,39.6,11.2,79.2-3.4,118.1
		c-9.8,25.9-27.3,44.9-53,55.7c0,1.9-0.4,3.5,0.1,4.6c26.3,59.5,52.5,119.1,79.1,178.4c5.6,12.4,11.4,24.9,26.1,30.2
		c2.9,1,4,6.9,7.2,13c-31.9,0-60.6,0.4-89.3-0.5c-3.6-0.1-8.5-6.2-10.4-10.6c-28.5-64.2-56.9-128.5-84.6-193
		c-4.9-11.3-10.9-16.9-24.6-12.7c-0.4,2.8-1.3,6.3-1.3,9.9c0.1,52,0.1,104,0.6,156c0.2,25.4,7.1,32.9,31.7,38.9
		c3.6,0.9,6.3,5.2,9.4,8c-0.8,1.1-1.6,2.3-2.5,3.4c-49.4,0-98.9,0-148.3,0c-0.8-1.1-1.6-2.3-2.5-3.4c3.1-2.7,5.8-7.1,9.4-8
		c23.8-5.9,31.7-14.4,31.8-39.2c0.3-124.8,0.3-249.5,0-374.3c-0.1-25.7-7-32.9-32.9-39.5C1464.2,816.5,1461.8,812.3,1457.1,807.8z
		 M1571.3,1039.3c56.4,4.3,76.4-12.4,85.9-58.8c6.2-30.4,5.5-61-0.4-91.4c-9.3-47.4-36.5-65.6-85.5-56.7
		C1571.3,901,1571.3,969.8,1571.3,1039.3z"/>
	<path d="M3292.8,1239.6c-10.9,9.6-21.4,19.7-32.9,28.6c-24.4,19-51.6,29.4-83.1,24.1c-24-4.1-40.8-18.5-53.4-38.6
		c-38.8-61.5-26.1-153.8,29.1-208.6c9.3-9.3,19.4-18.3,30.5-25.2c9.7-6,8.7-12.5,6.9-21.3c-8.9-41.9-12.5-84.1-1.7-126.3
		c5.7-22.3,15.9-42.4,32.8-58.5c33.6-32.1,81.8-24.3,103.4,16.8c20.3,38.6,12.8,94.8-18.6,128.1c-13.5,14.3-29.6,26.1-46.4,40.6
		c17.3,50.3,42.4,99.4,71.5,149.1c18.4-33,32.6-65.1,32.6-101.5c0-14.6-4.4-27.8-19.5-35c-3.4-1.6-4.8-7.3-8.5-13.5
		c33.3,0,62.8,0,96.5,0c-4.2,6.2-6.6,10.8-10,14.4c-7.8,8.5-19.1,15.1-23.6,24.9c-18.8,41.1-35.6,83.1-52.8,124.9
		c-1.2,2.8-0.6,7.7,1.2,10.1c9.9,13.2,19.6,26.8,31.1,38.5c16.3,16.6,30.1,14,42.2-6.2c2.9-4.8,5.2-10,9.9-19.1
		c2.3,6.9,5.8,11.9,4.5,14.7c-10.9,24.4-20.2,50.1-34.7,72.2c-17.5,26.5-47.5,28.2-71,6.6C3316,1267.7,3305.4,1253.6,3292.8,1239.6z
		 M3195.5,1037.5c-13.1,7.4-23.6,20.5-27.5,37.8c-12,52.7,1.5,100.4,33.5,142.2c24,31.4,52.3,29.3,74.7,0.5
		C3248.8,1156.8,3222.2,1097.2,3195.5,1037.5z M3248.1,977c21.8-11.4,35.1-24.5,39.4-44.9c6.6-30.9,2.4-60.8-9.9-89.6
		c-4.2-9.8-10.9-21.1-22.1-17.9c-8.2,2.3-15.7,12.3-20.2,20.6c-4,7.4-5.4,17.6-4.2,26C3235.9,906,3242.1,940.5,3248.1,977z"/>
	<path d="M2950.4,1132.9c-4.3,49.2-8.5,98.4-12.9,148.6c-4.6,0.3-8.7,0.9-12.8,0.9c-76.6,0.1-153.1,0-229.7,0c-2.4,0-5,0.6-7-0.2
		c-2.5-1.1-4.4-3.4-6.6-5.2c1.9-2.1,3.4-5.5,5.6-6.1c30.7-8.1,35.8-13.7,35.8-45.4c0.2-122.4,0-244.8,0.2-367.2
		c0-24.8-11.9-41.7-34.5-41.2c-2.3,0.1-4.8-3.8-7.2-5.9c3.1-1.9,6.1-5.4,9.2-5.4c33.1-0.4,66.2-0.3,99.3-0.3c45.8,0,91.6,0,137.7,0
		c0,47.1,0,93.3,0,139.6c-1.4,0.2-2.8,0.4-4.2,0.6c-1.5-5.9-3-11.8-4.4-17.7c-4.2-16.9-6.7-34.4-13-50.5
		c-10.2-25.9-28.9-43.1-58.5-44.1c-17.3-0.6-34.6-0.1-52.7-0.1c0,64.3,0,128.3,0,192.3c21.7,3.5,39.1-5.1,46.5-27.6
		c7.3-22.2,10.3-45.8,15.2-68.7c1.1-5,2.1-10,3.1-14.9c1.3,0.2,2.6,0.4,4,0.5c0,82.7,0,165.4,0,248.1c-1.2,0.3-2.4,0.6-3.7,0.9
		c-1.1-4.7-2.3-9.5-3.4-14.2c-5.8-23.7-10.1-47.9-17.8-70.9c-6.4-19.3-23.3-25.7-44-25.2c-0.3,4.7-0.7,8.8-0.7,12.9
		c0,46.8-0.1,93.6,0.2,140.4c0.1,9.4,0.8,18.9,2.3,28.2c2.4,14.9,10.1,21.1,25,21.8c56.3,2.8,86.4-16.3,106.5-69.1
		c5.7-14.9,8.9-30.7,13.4-46.1c1-3.5,2.5-6.8,3.8-10.1C2946.9,1131.9,2948.7,1132.4,2950.4,1132.9z"/>
	<path d="M2158.2,956.9c-2.7-6.7-4.8-10.1-5.3-13.7c-5.1-32.4-13.3-63.8-33.3-90.7c-3.6-4.9-7.6-9.7-11.9-14
		c-13.8-13.5-29.6-22.3-49.7-17c-20.8,5.5-30.2,22.1-35.1,40.9c-9.5,36.3,3.8,66,30.3,90.3c18.8,17.2,38.7,33.2,58.5,49.4
		c77.7,63.6,81.5,153.5,54.7,220.1c-7.4,18.3-19.9,35.6-33.6,49.9c-23.1,24.3-58.8,28.3-89,13.4c-6.3-3.1-12.5-6.7-18.4-10.5
		c-24.4-15.3-29.9-13.6-42.8,12.6c-1.2,2.4-3.5,4.2-7.5,8.9c0-63,0-122.2,0-181.4c1.2-0.3,2.5-0.6,3.7-0.8c1.3,4.4,3.1,8.6,3.8,13.1
		c7.1,41.8,17.2,82.4,45.6,115.6c14,16.4,30.6,28.6,53.6,26.4c25.2-2.4,44.9-26,48.4-56.8c3.8-34.1-5.6-63.8-30.8-87.4
		c-17.2-16.1-35.3-31.4-53.8-46.1c-77-61.7-84.6-148-59.7-217.9c7.5-21.1,19.2-40.1,38.1-53.4c23.3-16.5,48.1-17.7,73.6-5.4
		c4.2,2,8.2,4.6,12.1,7.3c34.1,23.6,34.1,23.6,45.5-14.3C2161.4,802.1,2165,933.4,2158.2,956.9z"/>
	<path d="M2272.5,1271.5c30.8-3.5,39.2-12,39.3-42.7c0.5-129,0.5-258,0.6-386.9c0-2.7-0.6-5.5-0.9-8.1c-36.4-8.1-60.9,3.6-73.7,37.5
		c-6.6,17.5-9.4,36.3-14.1,54.5c-0.7,2.9-2.2,5.5-3.3,8.3c-1.7-0.3-3.4-0.6-5.1-0.9c0-20.8,0-41.6,0-62.5c0-21.2,0-42.3,0-64.4
		c88.8,0,176.5,0,265.2,0c0,42,0,84.2,0,126.3c-0.9,0.5-1.7,1-2.6,1.4c-1.6-2.4-4-4.5-4.7-7.1c-4.1-16.4-6.1-33.6-12.1-49.4
		c-15.5-41-31-46.3-63.6-46.3c-12,0-14.9,3.7-14.9,15.3c0.4,105.8,0.1,211.7,0.3,317.5c0.1,25,0.6,50.1,2.1,75
		c1.1,19.5,10.9,29.2,30.1,31.1c7.5,0.7,12.2,1.7,8.5,12.1c-21.5,0-43.6,0-65.7,0c-25.5,0-51-0.1-76.5,0.1
		C2274.4,1282.5,2268.8,1281.9,2272.5,1271.5z"/>
	<path d="M5522.6,1281.9c-38.1,0-71.1,0-108.4,0c4.4-6.2,7.3-9.8,9.7-13.7c4.7-7.6,12.9-15.4,13-23.2c0.9-84.6,0.9-169.1-0.1-253.7
		c-0.1-7.7-8.4-15.4-13.1-23c-2.5-4-5.5-7.7-10-14.1c30.9,0,57.6,0,85.6,0c0,12.4,0,24.4,0,40.5c8.7-11.7,14.6-20.4,21.3-28.5
		c28.2-34.1,65-29.6,82.1,11.1c5.9,14,9.7,30,10.1,45.1c1.8,69.9,2.1,139.8,3,209.8c0.2,15.1-0.6,30.8,17.7,38
		c2.3,0.9,2.5,6.8,4.1,11.5c-35.6,0-69.1,0-105,0c2.2-5.1,2.7-10.8,5.6-12.4c12-6.9,15.2-18,15.2-30c0.3-72.3,0.4-144.6-0.1-216.9
		c-0.1-12.7-1.9-28.1-17-31c-14.1-2.7-21.9,10.3-26.6,21.5c-5,11.8-9.4,24.9-9.6,37.5c-1,56.7-0.5,113.4-0.3,170.1
		c0,9.4,0.1,19.2,2.5,28.1c1.9,7.1,7.5,13.2,11.6,19.7C5516.2,1272.1,5518.7,1275.8,5522.6,1281.9z"/>
	<path d="M5041,1232.5c6,14.3-5.3,23.7-11.6,33.8c-9,14.6-22.1,23.9-40.3,20c-25.7-5.4-28.2-27.4-32.8-50.6
		c-4.2,4.9-7.1,8.7-10.4,12.1c-10,10-19.1,21.2-30.3,29.5c-24.6,18-48.3,11.7-59.1-16.9c-14.7-39-10-77.6,16.5-109.5
		c20-24.1,45-44.3,69.3-64.4c11-9.1,16.3-17.7,15.1-31.8c-1.6-18.3-0.8-36.9-2.4-55.2c-1.8-21.3-19.5-34-36.9-27.9
		c-17,6-21.5,19.5-15.1,37.7c4.8,13.4,9,27.8,9.3,41.9c0.4,18.4-11.8,31.6-25.3,32.6c-14.3,1-25.8-9-31.4-27.4
		c-12.7-41.5,17.5-94.8,62.6-108.2c51.7-15.4,87.1,9.3,95.6,62.6c5.2,32.4,2.9,66,3.4,99c0.4,33.1,0.1,66.2,0.1,99.3
		c0,4.7-0.8,9.7,0.4,14.1c1.7,6.5,4.9,12.5,7.5,18.8C5030,1239.1,5034.9,1236.2,5041,1232.5z M4957,1102.1
		c-23.7,18.4-40.3,40.6-46.2,68.5c-2.6,12.4-1,26.1,1,38.9c1.6,9.9,7.3,18.8,19.6,18.8c9.3,0,25.1-13.9,25.3-23.6
		C4957.4,1170.6,4957,1136.3,4957,1102.1z"/>
	<path d="M1782.8,812.7c2.9-2.4,5.9-6.8,8.8-6.8c46.8-0.4,93.6-0.4,140.3,0c2.4,0,4.8,3.9,7.2,5.9c-2.6,1.9-5,5-7.8,5.4
		c-23.7,3.7-32,11.9-33.5,35.9c-0.9,14.6-0.6,29.3-0.6,43.9c0,107.7,0,215.5,0.1,323.2c0,6.6-0.1,13.3,0.8,19.8
		c2.7,18.9,12.4,28.5,31.4,30.4c7.7,0.8,11.9,2.2,7.9,11.4c-50.4,0-100.8,0-152,0c-2.5-6.8-2.4-10.5,7.1-11.4
		c21.6-2.1,28.7-9.3,31.8-30.7c1.3-8.9,1.9-17.9,1.9-26.8c0.1-112.5,0.1-224.9,0.1-337.4c0-6.1-0.1-12.3-0.6-18.4
		c-2.6-29.8-10.2-37.5-39.8-40.4C1784.9,815.3,1783.9,814,1782.8,812.7z"/>
	<path d="M2506.2,1278.7c3-2.7,5.6-7.2,8.9-7.8c23.2-4.1,31.3-11.5,32.3-35.2c1.4-34,1.7-68,1.8-102c0.2-79.4,0.1-158.8,0-238.1
		c0-12.7-0.3-25.5-1.2-38.2c-2.2-31-8.6-37.5-39.3-40.9c-3.1-7.5-1.3-11,7.6-11c45.4,0.2,90.7-0.1,136.1,0.4c3.4,0,6.7,4.3,12.9,8.6
		c-39.7,8.5-44.6,13.4-44.7,48.9c-0.3,122.8-0.1,245.7,0.2,368.5c0.1,25.5,8.2,33.8,33.3,38.9c3.2,0.6,5.7,4.9,8.5,7.5
		c-0.8,1.1-1.6,2.2-2.5,3.4c-50.4,0-100.8,0-151.1,0C2508,1280.7,2507.1,1279.7,2506.2,1278.7z"/>
	<path d="M5385,1115.6c-0.8,47.5-5.7,90.4-27.2,129.7c-11.9,21.8-27.4,39.9-53.1,45.4c-32.8,7-61-6.5-79.6-38
		c-19-32.4-27.5-68-30.4-105.1c-4.3-55.1,1.9-108.5,28-158.1c15-28.5,36.7-48,72-45c24.6,2.1,41.7,16.5,55.3,35.5
		c21.9,30.5,28.9,66.1,33.1,102.5C5384.5,1094.7,5384.6,1107,5385,1115.6z M5322.8,1128.8c-0.6,0-1.2-0.1-1.9-0.1
		c0-25.5,0.7-51-0.2-76.5c-0.6-17.4-2.5-34.8-5.6-51.9c-3.8-20.7-13.6-32-24.9-32.2c-12.2-0.2-23,11.8-25.9,32.7
		c-9.8,71.4-8.5,143.1-3.8,214.7c0.8,12.4,3.8,25.5,9.3,36.5c3.5,7.1,13.3,14.8,20.6,15.1c6.3,0.2,14.1-8.8,19.1-15.4
		c3.8-4.9,5.4-12.2,5.9-18.6C5318.2,1198.5,5320.4,1163.6,5322.8,1128.8z"/>
	<path d="M4044.8,1119.2c-1.2-46,6.4-90.3,28.8-131.1c15.3-27.8,36.8-46.6,71.4-43.6c21.8,1.9,37.8,13.8,51,30
		c20.4,24.9,29.1,54.7,34.1,85.7c8.5,52.9,7.9,105.6-10,156.6c-6,17-14.8,34-25.9,48.2c-30.4,38.9-83.4,37.1-112.4-3.1
		c-24.3-33.5-32.9-72.6-36.7-113C4044,1139.1,4044.8,1129.1,4044.8,1119.2z M4172.4,1115.8c-1,0-2,0-3,0c0-29.7,1.3-59.5-0.5-89.2
		c-0.9-15.6-5.3-31.7-11.6-46.1c-7.3-16.5-25.1-17-34.5-1.4c-5.4,8.9-8.8,20-10,30.4c-7.7,69.6-8,139.5-2.3,209.2
		c1.1,13.2,5.7,26.9,11.9,38.7c8.4,15.9,26.1,15.3,34.6-0.7c4.9-9.3,8.6-20.2,9.4-30.7C4169.2,1189.3,4170.5,1152.5,4172.4,1115.8z"
		/>
	<path d="M5061.3,806.3c30.6,0,57.8,0,86.4,0c0,6.4,0,11.9,0,17.5c0,130,0,259.9,0.1,389.9c0,11.8-0.4,24,2.6,35.1
		c2,7.5,9.6,13.5,14.8,20c2.7,3.3,5.7,6.3,8.6,9.4c-0.8,1-1.6,2.1-2.4,3.1c-35.7,0-71.4,0-111.3,0c4.1-5.5,6-10.6,9.5-12.3
		c10.8-5.1,15-13.7,15.9-24.8c0.2-2.8,0.3-5.7,0.3-8.5c0-127.1,0.1-254.3,0-381.4c0-15.3-0.5-30.8-19.5-36.7
		C5064.2,817.1,5063.4,811.2,5061.3,806.3z"/>
	<path d="M4346.8,1234c-5.7,15.4-9,30.9-16.8,43.7c-11.4,18.8-32.5,18.1-45.6,0.5c-17.3-23.4-17.5-66-0.5-89.5
		c13.9-19.1,35.3-19.4,47,1.2C4338.4,1202.9,4341.4,1218.5,4346.8,1234z"/>
</g>
</svg>
